<?xml version="1.0" encoding="UTF-8"?>
<!DOCTYPE svg PUBLIC "-//W3C//DTD SVG 1.1//EN" "http://www.w3.org/Graphics/SVG/1.1/DTD/svg11.dtd">
<svg xmlns="http://www.w3.org/2000/svg" version="1.1" width="980px" height="932px" style="shape-rendering:geometricPrecision; text-rendering:geometricPrecision; image-rendering:optimizeQuality; fill-rule:evenodd; clip-rule:evenodd" xmlns:xlink="http://www.w3.org/1999/xlink">
<g><path style="opacity:0.553" fill="#ffd1cd" d="M 461.5,16.5 C 457.167,16.5 452.833,16.5 448.5,16.5C 452.863,13.9099 457.196,13.9099 461.5,16.5 Z"/></g>
<g><path style="opacity:0.043" fill="#ffebe9" d="M 448.5,16.5 C 446.819,18.0075 444.819,19.0075 442.5,19.5C 443.911,17.461 445.911,16.461 448.5,16.5 Z"/></g>
<g><path style="opacity:1" fill="#fd5f55" d="M 448.5,16.5 C 452.833,16.5 457.167,16.5 461.5,16.5C 468.309,20.0699 475.309,23.4032 482.5,26.5C 485.686,27.5969 488.686,28.9303 491.5,30.5C 493.181,32.0075 495.181,33.0075 497.5,33.5C 498.78,34.9313 500.447,35.5979 502.5,35.5C 514.875,41.5747 527.209,47.5747 539.5,53.5C 539.821,55.0481 540.821,55.7148 542.5,55.5C 544.403,55.7959 546.07,56.4625 547.5,57.5C 550.247,60.2067 553.58,61.8734 557.5,62.5C 558.492,62.3284 559.158,62.6618 559.5,63.5C 649.828,112.825 740.162,162.158 830.5,211.5C 831.167,211.833 831.833,212.167 832.5,212.5C 835.642,214.58 838.642,216.914 841.5,219.5C 841.427,221.027 842.094,222.027 843.5,222.5C 843.427,224.027 844.094,225.027 845.5,225.5C 847.997,231.165 850.997,236.498 854.5,241.5C 854.845,244.198 856.178,246.198 858.5,247.5C 858.427,249.027 859.094,250.027 860.5,250.5C 860.427,252.027 861.094,253.027 862.5,253.5C 863.674,254.514 864.34,255.847 864.5,257.5C 864.427,259.027 865.094,260.027 866.5,260.5C 867.338,260.842 867.672,261.508 867.5,262.5C 867.427,264.027 868.094,265.027 869.5,265.5C 870.338,265.842 870.672,266.508 870.5,267.5C 870.66,269.153 871.326,270.486 872.5,271.5C 872.427,273.027 873.094,274.027 874.5,274.5C 874.427,276.027 875.094,277.027 876.5,277.5C 877.338,277.842 877.672,278.508 877.5,279.5C 877.66,281.153 878.326,282.486 879.5,283.5C 879.427,285.027 880.094,286.027 881.5,286.5C 881.427,288.027 882.094,289.027 883.5,289.5C 884.338,289.842 884.672,290.508 884.5,291.5C 884.66,293.153 885.326,294.486 886.5,295.5C 886.427,297.027 887.094,298.027 888.5,298.5C 889.338,298.842 889.672,299.508 889.5,300.5C 889.427,302.027 890.094,303.027 891.5,303.5C 891.75,305.674 892.75,307.341 894.5,308.5C 895.674,309.514 896.34,310.847 896.5,312.5C 896.427,314.027 897.094,315.027 898.5,315.5C 899.338,315.842 899.672,316.508 899.5,317.5C 899.427,319.027 900.094,320.027 901.5,320.5C 902.674,321.514 903.34,322.847 903.5,324.5C 903.427,326.027 904.094,327.027 905.5,327.5C 906.674,328.514 907.34,329.847 907.5,331.5C 907.427,333.027 908.094,334.027 909.5,334.5C 910.338,334.842 910.672,335.508 910.5,336.5C 910.427,338.027 911.094,339.027 912.5,339.5C 913.338,339.842 913.672,340.508 913.5,341.5C 913.427,343.027 914.094,344.027 915.5,344.5C 916.674,345.514 917.34,346.847 917.5,348.5C 917.427,350.027 918.094,351.027 919.5,351.5C 920.338,351.842 920.672,352.508 920.5,353.5C 920.427,355.027 921.094,356.027 922.5,356.5C 922.5,356.833 922.5,357.167 922.5,357.5C 922.427,359.027 923.094,360.027 924.5,360.5C 924.427,362.027 925.094,363.027 926.5,363.5C 927.338,363.842 927.672,364.508 927.5,365.5C 927.66,367.153 928.326,368.486 929.5,369.5C 929.427,371.027 930.094,372.027 931.5,372.5C 932.338,372.842 932.672,373.508 932.5,374.5C 932.427,376.027 933.094,377.027 934.5,377.5C 934.75,379.674 935.75,381.341 937.5,382.5C 938.674,383.514 939.34,384.847 939.5,386.5C 939.427,388.027 940.094,389.027 941.5,389.5C 942.338,389.842 942.672,390.508 942.5,391.5C 942.427,393.027 943.094,394.027 944.5,394.5C 945.674,395.514 946.34,396.847 946.5,398.5C 946.75,400.674 947.75,402.341 949.5,403.5C 951.112,410.664 953.112,417.664 955.5,424.5C 955.261,435.23 950.595,443.396 941.5,449C 924.974,457.757 908.974,467.257 893.5,477.5C 881.306,483.665 869.306,490.331 857.5,497.5C 857.167,498.5 856.833,499.5 856.5,500.5C 859.737,552.151 862.737,603.818 865.5,655.5C 864.13,659.907 862.297,664.24 860,668.5C 855.804,671.837 851.971,675.503 848.5,679.5C 848.5,680.167 848.167,680.5 847.5,680.5C 843.975,681.759 840.975,683.759 838.5,686.5C 827.648,692.422 817.315,699.089 807.5,706.5C 802.291,708.719 797.624,711.719 793.5,715.5C 788.291,717.719 783.624,720.719 779.5,724.5C 768.648,730.422 758.315,737.089 748.5,744.5C 743.291,746.719 738.624,749.719 734.5,753.5C 729.291,755.719 724.624,758.719 720.5,762.5C 714.314,765.422 708.648,769.089 703.5,773.5C 698.291,775.719 693.624,778.719 689.5,782.5C 684.291,784.719 679.624,787.719 675.5,791.5C 673.973,791.427 672.973,792.094 672.5,793.5C 668.317,795.087 664.65,797.421 661.5,800.5C 659.973,800.427 658.973,801.094 658.5,802.5C 653.291,804.719 648.624,807.719 644.5,811.5C 638.314,814.422 632.648,818.089 627.5,822.5C 623.317,824.087 619.65,826.421 616.5,829.5C 614.973,829.427 613.973,830.094 613.5,831.5C 608.291,833.719 603.624,836.719 599.5,840.5C 594.291,842.719 589.624,845.719 585.5,849.5C 583.973,849.427 582.973,850.094 582.5,851.5C 577.291,853.719 572.624,856.719 568.5,860.5C 557.648,866.422 547.315,873.089 537.5,880.5C 533.317,882.087 529.65,884.421 526.5,887.5C 524.973,887.427 523.973,888.094 523.5,889.5C 513.719,895.562 503.719,901.396 493.5,907C 490.243,908.043 486.91,908.543 483.5,908.5C 482.209,908.737 481.209,908.404 480.5,907.5C 480.027,906.094 479.027,905.427 477.5,905.5C 477.027,904.094 476.027,903.427 474.5,903.5C 466.849,900.341 459.516,896.675 452.5,892.5C 336.723,828.108 220.723,763.941 104.5,700C 97.1807,693.512 91.1807,686.012 86.5,677.5C 85.9209,666.017 85.2542,654.684 84.5,643.5C 84.8279,632.321 84.4946,621.321 83.5,610.5C 83.5,609.833 83.5,609.167 83.5,608.5C 83.5,589.833 83.5,571.167 83.5,552.5C 83.0259,528.668 82.3592,505.002 81.5,481.5C 81.1522,451.167 80.8188,420.834 80.5,390.5C 80.8297,384.132 80.4963,377.798 79.5,371.5C 78.8933,371.624 78.56,371.957 78.5,372.5C 72.9338,376.442 67.2672,380.108 61.5,383.5C 60.4206,385.543 58.754,386.876 56.5,387.5C 50.5295,390.24 44.1962,391.574 37.5,391.5C 37.1667,391.5 36.8333,391.5 36.5,391.5C 34.4293,390.055 32.096,389.055 29.5,388.5C 28.0755,390.031 27.4088,389.698 27.5,387.5C 27.0269,386.094 26.0269,385.427 24.5,385.5C 22.1542,382.129 19.8208,378.796 17.5,375.5C 16.7279,371.548 16.3946,367.548 16.5,363.5C 18.0075,361.819 19.0075,359.819 19.5,357.5C 19.6596,355.847 20.3263,354.514 21.5,353.5C 23.4456,352.965 24.4456,351.632 24.5,349.5C 25.1667,347.5 25.8333,345.5 26.5,343.5C 26.3284,342.508 26.6618,341.842 27.5,341.5C 30.5926,337.653 32.9259,333.32 34.5,328.5C 38.0398,321.765 41.8731,315.098 46,308.5C 47.7068,306.091 48.5402,303.425 48.5,300.5C 49.9063,300.027 50.573,299.027 50.5,297.5C 50.3284,296.508 50.6618,295.842 51.5,295.5C 55.1539,290.204 58.8206,284.871 62.5,279.5C 63.9063,279.027 64.573,278.027 64.5,276.5C 64.3284,275.508 64.6618,274.842 65.5,274.5C 66.9063,274.027 67.573,273.027 67.5,271.5C 69.2624,270.738 70.2624,269.404 70.5,267.5C 70.3284,266.508 70.6618,265.842 71.5,265.5C 72.9063,265.027 73.573,264.027 73.5,262.5C 73.3284,261.508 73.6618,260.842 74.5,260.5C 75.9063,260.027 76.573,259.027 76.5,257.5C 77.9063,257.027 78.573,256.027 78.5,254.5C 78.3284,253.508 78.6618,252.842 79.5,252.5C 80.9063,252.027 81.573,251.027 81.5,249.5C 82.9063,249.027 83.573,248.027 83.5,246.5C 84.9063,246.027 85.573,245.027 85.5,243.5C 87.1667,242.5 88.5,241.167 89.5,239.5C 91.4341,238.89 93.1007,237.89 94.5,236.5C 96.5496,234.453 98.883,232.786 101.5,231.5C 103.027,231.573 104.027,230.906 104.5,229.5C 104.842,228.662 105.508,228.328 106.5,228.5C 108.027,228.573 109.027,227.906 109.5,226.5C 109.842,225.662 110.508,225.328 111.5,225.5C 113.027,225.573 114.027,224.906 114.5,223.5C 114.842,222.662 115.508,222.328 116.5,222.5C 118.027,222.573 119.027,221.906 119.5,220.5C 121.027,220.573 122.027,219.906 122.5,218.5C 124.027,218.573 125.027,217.906 125.5,216.5C 127.663,214.917 129.996,213.584 132.5,212.5C 134.027,212.573 135.027,211.906 135.5,210.5C 137.027,210.573 138.027,209.906 138.5,208.5C 138.842,207.662 139.508,207.328 140.5,207.5C 142.027,207.573 143.027,206.906 143.5,205.5C 143.842,204.662 144.508,204.328 145.5,204.5C 147.027,204.573 148.027,203.906 148.5,202.5C 150.027,202.573 151.027,201.906 151.5,200.5C 153.027,200.573 154.027,199.906 154.5,198.5C 154.842,197.662 155.508,197.328 156.5,197.5C 158.027,197.573 159.027,196.906 159.5,195.5C 159.842,194.662 160.508,194.328 161.5,194.5C 163.027,194.573 164.027,193.906 164.5,192.5C 166.027,192.573 167.027,191.906 167.5,190.5C 169.027,190.573 170.027,189.906 170.5,188.5C 170.842,187.662 171.508,187.328 172.5,187.5C 174.027,187.573 175.027,186.906 175.5,185.5C 175.842,184.662 176.508,184.328 177.5,184.5C 179.027,184.573 180.027,183.906 180.5,182.5C 182.027,182.573 183.027,181.906 183.5,180.5C 183.842,179.662 184.508,179.328 185.5,179.5C 187.027,179.573 188.027,178.906 188.5,177.5C 188.842,176.662 189.508,176.328 190.5,176.5C 192.027,176.573 193.027,175.906 193.5,174.5C 195.027,174.573 196.027,173.906 196.5,172.5C 198.027,172.573 199.027,171.906 199.5,170.5C 199.842,169.662 200.508,169.328 201.5,169.5C 203.027,169.573 204.027,168.906 204.5,167.5C 204.842,166.662 205.508,166.328 206.5,166.5C 208.027,166.573 209.027,165.906 209.5,164.5C 211.027,164.573 212.027,163.906 212.5,162.5C 214.027,162.573 215.027,161.906 215.5,160.5C 215.842,159.662 216.508,159.328 217.5,159.5C 219.027,159.573 220.027,158.906 220.5,157.5C 220.842,156.662 221.508,156.328 222.5,156.5C 224.027,156.573 225.027,155.906 225.5,154.5C 227.027,154.573 228.027,153.906 228.5,152.5C 228.842,151.662 229.508,151.328 230.5,151.5C 232.027,151.573 233.027,150.906 233.5,149.5C 233.842,148.662 234.508,148.328 235.5,148.5C 237.027,148.573 238.027,147.906 238.5,146.5C 240.027,146.573 241.027,145.906 241.5,144.5C 243.027,144.573 244.027,143.906 244.5,142.5C 244.842,141.662 245.508,141.328 246.5,141.5C 248.027,141.573 249.027,140.906 249.5,139.5C 249.842,138.662 250.508,138.328 251.5,138.5C 253.027,138.573 254.027,137.906 254.5,136.5C 256.027,136.573 257.027,135.906 257.5,134.5C 257.842,133.662 258.508,133.328 259.5,133.5C 261.027,133.573 262.027,132.906 262.5,131.5C 263.899,130.11 265.566,129.11 267.5,128.5C 269.027,128.573 270.027,127.906 270.5,126.5C 272.027,126.573 273.027,125.906 273.5,124.5C 273.842,123.662 274.508,123.328 275.5,123.5C 277.027,123.573 278.027,122.906 278.5,121.5C 278.842,120.662 279.508,120.328 280.5,120.5C 282.027,120.573 283.027,119.906 283.5,118.5C 285.027,118.573 286.027,117.906 286.5,116.5C 288.027,116.573 289.027,115.906 289.5,114.5C 289.842,113.662 290.508,113.328 291.5,113.5C 293.027,113.573 294.027,112.906 294.5,111.5C 294.842,110.662 295.508,110.328 296.5,110.5C 298.027,110.573 299.027,109.906 299.5,108.5C 301.027,108.573 302.027,107.906 302.5,106.5C 304.027,106.573 305.027,105.906 305.5,104.5C 305.842,103.662 306.508,103.328 307.5,103.5C 309.027,103.573 310.027,102.906 310.5,101.5C 310.842,100.662 311.508,100.328 312.5,100.5C 314.027,100.573 315.027,99.9063 315.5,98.5C 317.027,98.573 318.027,97.9063 318.5,96.5C 318.842,95.6618 319.508,95.3284 320.5,95.5C 322.027,95.573 323.027,94.9063 323.5,93.5C 325.027,93.573 326.027,92.9063 326.5,91.5C 326.842,90.6618 327.508,90.3284 328.5,90.5C 330.027,90.573 331.027,89.9063 331.5,88.5C 333.027,88.573 334.027,87.9063 334.5,86.5C 334.842,85.6618 335.508,85.3284 336.5,85.5C 338.027,85.573 339.027,84.9063 339.5,83.5C 339.842,82.6618 340.508,82.3284 341.5,82.5C 343.027,82.573 344.027,81.9063 344.5,80.5C 346.027,80.573 347.027,79.9063 347.5,78.5C 349.027,78.573 350.027,77.9063 350.5,76.5C 350.842,75.6618 351.508,75.3284 352.5,75.5C 354.027,75.573 355.027,74.9063 355.5,73.5C 355.842,72.6618 356.508,72.3284 357.5,72.5C 359.027,72.573 360.027,71.9063 360.5,70.5C 362.027,70.573 363.027,69.9063 363.5,68.5C 363.842,67.6618 364.508,67.3284 365.5,67.5C 367.027,67.573 368.027,66.9063 368.5,65.5C 370.027,65.573 371.027,64.9063 371.5,63.5C 371.842,62.6618 372.508,62.3284 373.5,62.5C 375.027,62.573 376.027,61.9063 376.5,60.5C 378.027,60.573 379.027,59.9063 379.5,58.5C 379.842,57.6618 380.508,57.3284 381.5,57.5C 383.027,57.573 384.027,56.9063 384.5,55.5C 384.842,54.6618 385.508,54.3284 386.5,54.5C 388.027,54.573 389.027,53.9063 389.5,52.5C 390.29,51.5987 391.29,50.9321 392.5,50.5C 394.027,50.573 395.027,49.9063 395.5,48.5C 395.842,47.6618 396.508,47.3284 397.5,47.5C 399.027,47.573 400.027,46.9063 400.5,45.5C 400.842,44.6618 401.508,44.3284 402.5,44.5C 404.027,44.573 405.027,43.9063 405.5,42.5C 405.842,41.6618 406.508,41.3284 407.5,41.5C 409.027,41.573 410.027,40.9063 410.5,39.5C 412.027,39.573 413.027,38.9063 413.5,37.5C 415.027,37.573 416.027,36.9063 416.5,35.5C 416.842,34.6618 417.508,34.3284 418.5,34.5C 420.027,34.573 421.027,33.9063 421.5,32.5C 421.842,31.6618 422.508,31.3284 423.5,31.5C 425.027,31.573 426.027,30.9063 426.5,29.5C 428.027,29.573 429.027,28.9063 429.5,27.5C 429.842,26.6618 430.508,26.3284 431.5,26.5C 433.027,26.573 434.027,25.9063 434.5,24.5C 434.842,23.6618 435.508,23.3284 436.5,23.5C 438.027,23.573 439.027,22.9063 439.5,21.5C 441.027,21.573 442.027,20.9063 442.5,19.5C 444.819,19.0075 446.819,18.0075 448.5,16.5 Z"/></g>
<g><path style="opacity:0.009" fill="#fff2f2" d="M 461.5,16.5 C 469.414,17.9574 476.414,21.2907 482.5,26.5C 475.309,23.4032 468.309,20.0699 461.5,16.5 Z"/></g>
<g><path style="opacity:0.671" fill="#ffc1bb" d="M 442.5,19.5 C 442.027,20.9063 441.027,21.573 439.5,21.5C 439.973,20.0937 440.973,19.427 442.5,19.5 Z"/></g>
<g><path style="opacity:0.827" fill="#ffada5" d="M 439.5,21.5 C 439.027,22.9063 438.027,23.573 436.5,23.5C 436.973,22.0937 437.973,21.427 439.5,21.5 Z"/></g>
<g><path style="opacity:0.737" fill="#ffb9b4" d="M 434.5,24.5 C 434.027,25.9063 433.027,26.573 431.5,26.5C 431.973,25.0937 432.973,24.427 434.5,24.5 Z"/></g>
<g><path style="opacity:0.624" fill="#ffc7c2" d="M 429.5,27.5 C 429.027,28.9063 428.027,29.573 426.5,29.5C 426.973,28.0937 427.973,27.427 429.5,27.5 Z"/></g>
<g><path style="opacity:0.745" fill="#ffb8b1" d="M 426.5,29.5 C 426.027,30.9063 425.027,31.573 423.5,31.5C 423.973,30.0937 424.973,29.427 426.5,29.5 Z"/></g>
<g><path style="opacity:0.004" fill="#ffeae9" d="M 491.5,30.5 C 494.089,30.461 496.089,31.461 497.5,33.5C 495.181,33.0075 493.181,32.0075 491.5,30.5 Z"/></g>
<g><path style="opacity:0.643" fill="#ffc4c0" d="M 421.5,32.5 C 421.027,33.9063 420.027,34.573 418.5,34.5C 418.973,33.0937 419.973,32.427 421.5,32.5 Z"/></g>
<g><path style="opacity:0.078" fill="#ffeceb" d="M 497.5,33.5 C 499.553,33.4021 501.22,34.0687 502.5,35.5C 500.447,35.5979 498.78,34.9313 497.5,33.5 Z"/></g>
<g><path style="opacity:0.529" fill="#ffd1cd" d="M 416.5,35.5 C 416.027,36.9063 415.027,37.573 413.5,37.5C 413.973,36.0937 414.973,35.427 416.5,35.5 Z"/></g>
<g><path style="opacity:0.663" fill="#ffc2bd" d="M 413.5,37.5 C 413.027,38.9063 412.027,39.573 410.5,39.5C 410.973,38.0937 411.973,37.427 413.5,37.5 Z"/></g>
<g><path style="opacity:0.8" fill="#ffb1aa" d="M 410.5,39.5 C 410.027,40.9063 409.027,41.573 407.5,41.5C 407.973,40.0937 408.973,39.427 410.5,39.5 Z"/></g>
<g><path style="opacity:0.698" fill="#ffbeb9" d="M 405.5,42.5 C 405.027,43.9063 404.027,44.573 402.5,44.5C 402.973,43.0937 403.973,42.427 405.5,42.5 Z"/></g>
<g><path style="opacity:0.58" fill="#ffcbc7" d="M 400.5,45.5 C 400.027,46.9063 399.027,47.573 397.5,47.5C 397.973,46.0937 398.973,45.427 400.5,45.5 Z"/></g>
<g><path style="opacity:0.451" fill="#ffd8d5" d="M 395.5,48.5 C 395.027,49.9063 394.027,50.573 392.5,50.5C 392.973,49.0937 393.973,48.427 395.5,48.5 Z"/></g>
<g><path style="opacity:0.741" fill="#ffb9b3" d="M 389.5,52.5 C 389.027,53.9063 388.027,54.573 386.5,54.5C 386.973,53.0937 387.973,52.427 389.5,52.5 Z"/></g>
<g><path style="opacity:0.969" fill="#ffb4aa" d="M 539.5,53.5 C 540.71,53.9321 541.71,54.5987 542.5,55.5C 540.821,55.7148 539.821,55.0481 539.5,53.5 Z"/></g>
<g><path style="opacity:0.635" fill="#ffc5c0" d="M 384.5,55.5 C 384.027,56.9063 383.027,57.573 381.5,57.5C 381.973,56.0937 382.973,55.427 384.5,55.5 Z"/></g>
<g><path style="opacity:0.11" fill="#ffe1de" d="M 547.5,57.5 C 551.151,58.6589 554.485,60.3256 557.5,62.5C 553.58,61.8734 550.247,60.2067 547.5,57.5 Z"/></g>
<g><path style="opacity:0.51" fill="#ffd2cf" d="M 379.5,58.5 C 379.027,59.9063 378.027,60.573 376.5,60.5C 376.973,59.0937 377.973,58.427 379.5,58.5 Z"/></g>
<g><path style="opacity:0.655" fill="#ffc4bf" d="M 376.5,60.5 C 376.027,61.9063 375.027,62.573 373.5,62.5C 373.973,61.0937 374.973,60.427 376.5,60.5 Z"/></g>
<g><path style="opacity:0.537" fill="#ffd0cc" d="M 371.5,63.5 C 371.027,64.9063 370.027,65.573 368.5,65.5C 368.973,64.0937 369.973,63.427 371.5,63.5 Z"/></g>
<g><path style="opacity:0.678" fill="#ffc0bb" d="M 368.5,65.5 C 368.027,66.9063 367.027,67.573 365.5,67.5C 365.973,66.0937 366.973,65.427 368.5,65.5 Z"/></g>
<g><path style="opacity:0.016" fill="#fff0ef" d="M 559.5,63.5 C 649.215,110.859 738.548,159.026 827.5,208C 828.71,209.039 829.71,210.206 830.5,211.5C 740.162,162.158 649.828,112.825 559.5,63.5 Z"/></g>
<g><path style="opacity:0.553" fill="#ffceca" d="M 363.5,68.5 C 363.027,69.9063 362.027,70.573 360.5,70.5C 360.973,69.0937 361.973,68.427 363.5,68.5 Z"/></g>
<g><path style="opacity:0.71" fill="#ffbdb8" d="M 360.5,70.5 C 360.027,71.9063 359.027,72.573 357.5,72.5C 357.973,71.0937 358.973,70.427 360.5,70.5 Z"/></g>
<g><path style="opacity:0.596" fill="#ffcac6" d="M 355.5,73.5 C 355.027,74.9063 354.027,75.573 352.5,75.5C 352.973,74.0937 353.973,73.427 355.5,73.5 Z"/></g>
<g><path style="opacity:0.459" fill="#ffd8d5" d="M 350.5,76.5 C 350.027,77.9063 349.027,78.573 347.5,78.5C 347.973,77.0937 348.973,76.427 350.5,76.5 Z"/></g>
<g><path style="opacity:0.616" fill="#ffc8c3" d="M 347.5,78.5 C 347.027,79.9063 346.027,80.573 344.5,80.5C 344.973,79.0937 345.973,78.427 347.5,78.5 Z"/></g>
<g><path style="opacity:0.753" fill="#ffb8b1" d="M 344.5,80.5 C 344.027,81.9063 343.027,82.573 341.5,82.5C 341.973,81.0937 342.973,80.427 344.5,80.5 Z"/></g>
<g><path style="opacity:0.647" fill="#ffc4bf" d="M 339.5,83.5 C 339.027,84.9063 338.027,85.573 336.5,85.5C 336.973,84.0937 337.973,83.427 339.5,83.5 Z"/></g>
<g><path style="opacity:1" fill="#8b8a94" d="M 435.5,85.5 C 436.461,87.2646 436.795,89.2646 436.5,91.5C 435.402,199.557 435.235,307.557 436,415.5C 343.076,362.953 249.909,310.787 156.5,259C 249.528,201.156 342.528,143.322 435.5,85.5 Z"/></g>
<g><path style="opacity:1" fill="#fffefe" d="M 488.5,85.5 C 584.326,136.343 679.66,188.009 774.5,240.5C 679.43,298.897 584.097,356.897 488.5,414.5C 487.774,404.328 487.107,394.162 486.5,384C 487.201,284.67 487.868,185.17 488.5,85.5 Z"/></g>
<g><path style="opacity:0.518" fill="#ffd2ce" d="M 334.5,86.5 C 334.027,87.9063 333.027,88.573 331.5,88.5C 331.973,87.0937 332.973,86.427 334.5,86.5 Z"/></g>
<g><path style="opacity:1" fill="#c37576" d="M 435.5,85.5 C 435.56,84.9569 435.893,84.6236 436.5,84.5C 437.797,86.9732 437.797,89.3066 436.5,91.5C 436.795,89.2646 436.461,87.2646 435.5,85.5 Z"/></g>
<g><path style="opacity:0.659" fill="#ffc3bd" d="M 331.5,88.5 C 331.027,89.9063 330.027,90.573 328.5,90.5C 328.973,89.0937 329.973,88.427 331.5,88.5 Z"/></g>
<g><path style="opacity:0.545" fill="#ffcfcb" d="M 326.5,91.5 C 326.027,92.9063 325.027,93.573 323.5,93.5C 323.973,92.0937 324.973,91.427 326.5,91.5 Z"/></g>
<g><path style="opacity:0.69" fill="#ffbfba" d="M 323.5,93.5 C 323.027,94.9063 322.027,95.573 320.5,95.5C 320.973,94.0937 321.973,93.427 323.5,93.5 Z"/></g>
<g><path style="opacity:0.561" fill="#ffcdc9" d="M 318.5,96.5 C 318.027,97.9063 317.027,98.573 315.5,98.5C 315.973,97.0937 316.973,96.427 318.5,96.5 Z"/></g>
<g><path style="opacity:0.722" fill="#ffbcb6" d="M 315.5,98.5 C 315.027,99.9063 314.027,100.573 312.5,100.5C 312.973,99.0937 313.973,98.427 315.5,98.5 Z"/></g>
<g><path style="opacity:0.604" fill="#ffc9c4" d="M 310.5,101.5 C 310.027,102.906 309.027,103.573 307.5,103.5C 307.973,102.094 308.973,101.427 310.5,101.5 Z"/></g>
<g><path style="opacity:0.475" fill="#ffd6d3" d="M 305.5,104.5 C 305.027,105.906 304.027,106.573 302.5,106.5C 302.973,105.094 303.973,104.427 305.5,104.5 Z"/></g>
<g><path style="opacity:0.624" fill="#ffc7c2" d="M 302.5,106.5 C 302.027,107.906 301.027,108.573 299.5,108.5C 299.973,107.094 300.973,106.427 302.5,106.5 Z"/></g>
<g><path style="opacity:0.761" fill="#ffb7b1" d="M 299.5,108.5 C 299.027,109.906 298.027,110.573 296.5,110.5C 296.973,109.094 297.973,108.427 299.5,108.5 Z"/></g>
<g><path style="opacity:0.655" fill="#ffc3bf" d="M 294.5,111.5 C 294.027,112.906 293.027,113.573 291.5,113.5C 291.973,112.094 292.973,111.427 294.5,111.5 Z"/></g>
<g><path style="opacity:0.537" fill="#ffd0cc" d="M 289.5,114.5 C 289.027,115.906 288.027,116.573 286.5,116.5C 286.973,115.094 287.973,114.427 289.5,114.5 Z"/></g>
<g><path style="opacity:0.667" fill="#ffc2bd" d="M 286.5,116.5 C 286.027,117.906 285.027,118.573 283.5,118.5C 283.973,117.094 284.973,116.427 286.5,116.5 Z"/></g>
<g><path style="opacity:0.804" fill="#ffb0a9" d="M 283.5,118.5 C 283.027,119.906 282.027,120.573 280.5,120.5C 280.973,119.094 281.973,118.427 283.5,118.5 Z"/></g>
<g><path style="opacity:0.702" fill="#ffbeb8" d="M 278.5,121.5 C 278.027,122.906 277.027,123.573 275.5,123.5C 275.973,122.094 276.973,121.427 278.5,121.5 Z"/></g>
<g><path style="opacity:0.58" fill="#ffcbc7" d="M 273.5,124.5 C 273.027,125.906 272.027,126.573 270.5,126.5C 270.973,125.094 271.973,124.427 273.5,124.5 Z"/></g>
<g><path style="opacity:0.725" fill="#ffbbb6" d="M 270.5,126.5 C 270.027,127.906 269.027,128.573 267.5,128.5C 267.973,127.094 268.973,126.427 270.5,126.5 Z"/></g>
<g><path style="opacity:0.749" fill="#ffb8b2" d="M 262.5,131.5 C 262.027,132.906 261.027,133.573 259.5,133.5C 259.973,132.094 260.973,131.427 262.5,131.5 Z"/></g>
<g><path style="opacity:0.635" fill="#ffc5c0" d="M 257.5,134.5 C 257.027,135.906 256.027,136.573 254.5,136.5C 254.973,135.094 255.973,134.427 257.5,134.5 Z"/></g>
<g><path style="opacity:0.761" fill="#ffb6b0" d="M 254.5,136.5 C 254.027,137.906 253.027,138.573 251.5,138.5C 251.973,137.094 252.973,136.427 254.5,136.5 Z"/></g>
<g><path style="opacity:0.659" fill="#ffc3be" d="M 249.5,139.5 C 249.027,140.906 248.027,141.573 246.5,141.5C 246.973,140.094 247.973,139.427 249.5,139.5 Z"/></g>
<g><path style="opacity:0.549" fill="#ffcfcb" d="M 244.5,142.5 C 244.027,143.906 243.027,144.573 241.5,144.5C 241.973,143.094 242.973,142.427 244.5,142.5 Z"/></g>
<g><path style="opacity:0.675" fill="#ffc0bb" d="M 241.5,144.5 C 241.027,145.906 240.027,146.573 238.5,146.5C 238.973,145.094 239.973,144.427 241.5,144.5 Z"/></g>
<g><path style="opacity:0.808" fill="#ffb0a9" d="M 238.5,146.5 C 238.027,147.906 237.027,148.573 235.5,148.5C 235.973,147.094 236.973,146.427 238.5,146.5 Z"/></g>
<g><path style="opacity:0.71" fill="#ffbdb7" d="M 233.5,149.5 C 233.027,150.906 232.027,151.573 230.5,151.5C 230.973,150.094 231.973,149.427 233.5,149.5 Z"/></g>
<g><path style="opacity:0.588" fill="#ffcbc6" d="M 228.5,152.5 C 228.027,153.906 227.027,154.573 225.5,154.5C 225.973,153.094 226.973,152.427 228.5,152.5 Z"/></g>
<g><path style="opacity:0.733" fill="#ffbab4" d="M 225.5,154.5 C 225.027,155.906 224.027,156.573 222.5,156.5C 222.973,155.094 223.973,154.427 225.5,154.5 Z"/></g>
<g><path style="opacity:0.62" fill="#ffc8c3" d="M 220.5,157.5 C 220.027,158.906 219.027,159.573 217.5,159.5C 217.973,158.094 218.973,157.427 220.5,157.5 Z"/></g>
<g><path style="opacity:0.502" fill="#ffd3d0" d="M 215.5,160.5 C 215.027,161.906 214.027,162.573 212.5,162.5C 212.973,161.094 213.973,160.427 215.5,160.5 Z"/></g>
<g><path style="opacity:0.643" fill="#ffc4c0" d="M 212.5,162.5 C 212.027,163.906 211.027,164.573 209.5,164.5C 209.973,163.094 210.973,162.427 212.5,162.5 Z"/></g>
<g><path style="opacity:0.776" fill="#ffb4ad" d="M 209.5,164.5 C 209.027,165.906 208.027,166.573 206.5,166.5C 206.973,165.094 207.973,164.427 209.5,164.5 Z"/></g>
<g><path style="opacity:0.671" fill="#ffc2bc" d="M 204.5,167.5 C 204.027,168.906 203.027,169.573 201.5,169.5C 201.973,168.094 202.973,167.427 204.5,167.5 Z"/></g>
<g><path style="opacity:0.553" fill="#ffceca" d="M 199.5,170.5 C 199.027,171.906 198.027,172.573 196.5,172.5C 196.973,171.094 197.973,170.427 199.5,170.5 Z"/></g>
<g><path style="opacity:0.686" fill="#ffbfba" d="M 196.5,172.5 C 196.027,173.906 195.027,174.573 193.5,174.5C 193.973,173.094 194.973,172.427 196.5,172.5 Z"/></g>
<g><path style="opacity:0.82" fill="#ffaea7" d="M 193.5,174.5 C 193.027,175.906 192.027,176.573 190.5,176.5C 190.973,175.094 191.973,174.427 193.5,174.5 Z"/></g>
<g><path style="opacity:0.722" fill="#ffbcb6" d="M 188.5,177.5 C 188.027,178.906 187.027,179.573 185.5,179.5C 185.973,178.094 186.973,177.427 188.5,177.5 Z"/></g>
<g><path style="opacity:0.6" fill="#ffc9c4" d="M 183.5,180.5 C 183.027,181.906 182.027,182.573 180.5,182.5C 180.973,181.094 181.973,180.427 183.5,180.5 Z"/></g>
<g><path style="opacity:0.745" fill="#ffb9b2" d="M 180.5,182.5 C 180.027,183.906 179.027,184.573 177.5,184.5C 177.973,183.094 178.973,182.427 180.5,182.5 Z"/></g>
<g><path style="opacity:0.631" fill="#ffc6c2" d="M 175.5,185.5 C 175.027,186.906 174.027,187.573 172.5,187.5C 172.973,186.094 173.973,185.427 175.5,185.5 Z"/></g>
<g><path style="opacity:0.514" fill="#ffd2cf" d="M 170.5,188.5 C 170.027,189.906 169.027,190.573 167.5,190.5C 167.973,189.094 168.973,188.427 170.5,188.5 Z"/></g>
<g><path style="opacity:0.655" fill="#ffc3bf" d="M 167.5,190.5 C 167.027,191.906 166.027,192.573 164.5,192.5C 164.973,191.094 165.973,190.427 167.5,190.5 Z"/></g>
<g><path style="opacity:0.78" fill="#ffb3ad" d="M 164.5,192.5 C 164.027,193.906 163.027,194.573 161.5,194.5C 161.973,193.094 162.973,192.427 164.5,192.5 Z"/></g>
<g><path style="opacity:0.682" fill="#ffc0ba" d="M 159.5,195.5 C 159.027,196.906 158.027,197.573 156.5,197.5C 156.973,196.094 157.973,195.427 159.5,195.5 Z"/></g>
<g><path style="opacity:0.565" fill="#ffcdc9" d="M 154.5,198.5 C 154.027,199.906 153.027,200.573 151.5,200.5C 151.973,199.094 152.973,198.427 154.5,198.5 Z"/></g>
<g><path style="opacity:0.694" fill="#ffbeb8" d="M 151.5,200.5 C 151.027,201.906 150.027,202.573 148.5,202.5C 148.973,201.094 149.973,200.427 151.5,200.5 Z"/></g>
<g><path style="opacity:0.827" fill="#ffaea6" d="M 148.5,202.5 C 148.027,203.906 147.027,204.573 145.5,204.5C 145.973,203.094 146.973,202.427 148.5,202.5 Z"/></g>
<g><path style="opacity:0.729" fill="#ffbbb4" d="M 143.5,205.5 C 143.027,206.906 142.027,207.573 140.5,207.5C 140.973,206.094 141.973,205.427 143.5,205.5 Z"/></g>
<g><path style="opacity:0.612" fill="#ffc8c3" d="M 138.5,208.5 C 138.027,209.906 137.027,210.573 135.5,210.5C 135.973,209.094 136.973,208.427 138.5,208.5 Z"/></g>
<g><path style="opacity:0.753" fill="#ffb8b1" d="M 135.5,210.5 C 135.027,211.906 134.027,212.573 132.5,212.5C 132.973,211.094 133.973,210.427 135.5,210.5 Z"/></g>
<g><path style="opacity:0.008" fill="#ffedec" d="M 832.5,212.5 C 837.248,212.662 840.248,214.996 841.5,219.5C 838.642,216.914 835.642,214.58 832.5,212.5 Z"/></g>
<g><path style="opacity:0.525" fill="#ffd1ce" d="M 125.5,216.5 C 125.027,217.906 124.027,218.573 122.5,218.5C 122.973,217.094 123.973,216.427 125.5,216.5 Z"/></g>
<g><path style="opacity:0.671" fill="#ffc2bc" d="M 122.5,218.5 C 122.027,219.906 121.027,220.573 119.5,220.5C 119.973,219.094 120.973,218.427 122.5,218.5 Z"/></g>
<g><path style="opacity:0.784" fill="#ffb3ac" d="M 119.5,220.5 C 119.027,221.906 118.027,222.573 116.5,222.5C 116.973,221.094 117.973,220.427 119.5,220.5 Z"/></g>
<g><path style="opacity:0.271" fill="#ffd0cb" d="M 841.5,219.5 C 842.906,219.973 843.573,220.973 843.5,222.5C 842.094,222.027 841.427,221.027 841.5,219.5 Z"/></g>
<g><path style="opacity:0.694" fill="#ffbfb9" d="M 114.5,223.5 C 114.027,224.906 113.027,225.573 111.5,225.5C 111.973,224.094 112.973,223.427 114.5,223.5 Z"/></g>
<g><path style="opacity:0.18" fill="#ffdedc" d="M 843.5,222.5 C 844.906,222.973 845.573,223.973 845.5,225.5C 844.094,225.027 843.427,224.027 843.5,222.5 Z"/></g>
<g><path style="opacity:0.584" fill="#ffcbc7" d="M 109.5,226.5 C 109.027,227.906 108.027,228.573 106.5,228.5C 106.973,227.094 107.973,226.427 109.5,226.5 Z"/></g>
<g><path style="opacity:0.894" fill="#ffb2a9" d="M 104.5,229.5 C 104.027,230.906 103.027,231.573 101.5,231.5C 101.973,230.094 102.973,229.427 104.5,229.5 Z"/></g>
<g><path style="opacity:0.067" fill="#ffe8e7" d="M 845.5,225.5 C 849.524,230.21 852.524,235.543 854.5,241.5C 850.997,236.498 847.997,231.165 845.5,225.5 Z"/></g>
<g><path style="opacity:0.141" fill="#ffe5e3" d="M 94.5,236.5 C 93.1007,237.89 91.4341,238.89 89.5,239.5C 90.4006,237.273 92.0672,236.273 94.5,236.5 Z"/></g>
<g><path style="opacity:0.396" fill="#ffd4d1" d="M 89.5,239.5 C 88.5,241.167 87.1667,242.5 85.5,243.5C 85.8333,241.167 87.1667,239.833 89.5,239.5 Z"/></g>
<g><path style="opacity:0.078" fill="#ffe3e1" d="M 854.5,241.5 C 856.326,243.147 857.66,245.147 858.5,247.5C 856.178,246.198 854.845,244.198 854.5,241.5 Z"/></g>
<g><path style="opacity:0.173" fill="#ffe1df" d="M 85.5,243.5 C 85.573,245.027 84.9063,246.027 83.5,246.5C 83.427,244.973 84.0937,243.973 85.5,243.5 Z"/></g>
<g><path style="opacity:0.145" fill="#ffe5e3" d="M 83.5,246.5 C 83.573,248.027 82.9063,249.027 81.5,249.5C 81.427,247.973 82.0937,246.973 83.5,246.5 Z"/></g>
<g><path style="opacity:0.298" fill="#ffcac5" d="M 858.5,247.5 C 859.906,247.973 860.573,248.973 860.5,250.5C 859.094,250.027 858.427,249.027 858.5,247.5 Z"/></g>
<g><path style="opacity:0.122" fill="#ffe9e7" d="M 81.5,249.5 C 81.573,251.027 80.9063,252.027 79.5,252.5C 79.427,250.973 80.0937,249.973 81.5,249.5 Z"/></g>
<g><path style="opacity:0.149" fill="#ffe1df" d="M 860.5,250.5 C 861.906,250.973 862.573,251.973 862.5,253.5C 861.094,253.027 860.427,252.027 860.5,250.5 Z"/></g>
<g><path style="opacity:0.286" fill="#ffd1ce" d="M 78.5,254.5 C 78.573,256.027 77.9063,257.027 76.5,257.5C 76.427,255.973 77.0937,254.973 78.5,254.5 Z"/></g>
<g><path style="opacity:0.196" fill="#ffdbd8" d="M 76.5,257.5 C 76.573,259.027 75.9063,260.027 74.5,260.5C 74.427,258.973 75.0937,257.973 76.5,257.5 Z"/></g>
<g><path style="opacity:0.176" fill="#ffdddb" d="M 864.5,257.5 C 865.906,257.973 866.573,258.973 866.5,260.5C 865.094,260.027 864.427,259.027 864.5,257.5 Z"/></g>
<g><path style="opacity:0.263" fill="#ffcfca" d="M 73.5,262.5 C 73.573,264.027 72.9063,265.027 71.5,265.5C 71.427,263.973 72.0937,262.973 73.5,262.5 Z"/></g>
<g><path style="opacity:0.145" fill="#ffe3e1" d="M 867.5,262.5 C 868.906,262.973 869.573,263.973 869.5,265.5C 868.094,265.027 867.427,264.027 867.5,262.5 Z"/></g>
<g><path style="opacity:0.557" fill="#ffbfb9" d="M 70.5,267.5 C 70.2624,269.404 69.2624,270.738 67.5,271.5C 67.7376,269.596 68.7376,268.262 70.5,267.5 Z"/></g>
<g><path style="opacity:0.071" fill="#ffdfdc" d="M 870.5,267.5 C 872.104,268.287 872.771,269.62 872.5,271.5C 871.326,270.486 870.66,269.153 870.5,267.5 Z"/></g>
<g><path style="opacity:0.141" fill="#ffe2e0" d="M 67.5,271.5 C 67.573,273.027 66.9063,274.027 65.5,274.5C 65.427,272.973 66.0937,271.973 67.5,271.5 Z"/></g>
<g><path style="opacity:0.286" fill="#ffcdc9" d="M 872.5,271.5 C 873.906,271.973 874.573,272.973 874.5,274.5C 873.094,274.027 872.427,273.027 872.5,271.5 Z"/></g>
<g><path style="opacity:0.137" fill="#ffe5e3" d="M 874.5,274.5 C 875.906,274.973 876.573,275.973 876.5,277.5C 875.094,277.027 874.427,276.027 874.5,274.5 Z"/></g>
<g><path style="opacity:0.263" fill="#ffd8d5" d="M 64.5,276.5 C 64.573,278.027 63.9063,279.027 62.5,279.5C 62.427,277.973 63.0937,276.973 64.5,276.5 Z"/></g>
<g><path style="opacity:1" fill="#fefefe" d="M 819.5,284.5 C 807.235,290.931 797.735,300.264 791,312.5C 771.149,350.942 764.482,391.608 771,434.5C 773.61,450.277 777.777,465.61 783.5,480.5C 715.664,519.673 647.83,559.007 580,598.5C 577.315,596.825 575.315,594.492 574,591.5C 551.228,549.457 528.061,507.624 504.5,466C 607.333,403.082 710.333,340.416 813.5,278C 814.635,277.251 815.635,277.417 816.5,278.5C 817.559,280.534 818.559,282.534 819.5,284.5 Z"/></g>
<g><path style="opacity:0.075" fill="#ffe0dd" d="M 877.5,279.5 C 879.104,280.287 879.771,281.62 879.5,283.5C 878.326,282.486 877.66,281.153 877.5,279.5 Z"/></g>
<g><path style="opacity:1" fill="#8b8b94" d="M 819.5,284.5 C 844.793,327.738 870.127,371.071 895.5,414.5C 858.536,436.987 821.203,458.987 783.5,480.5C 777.777,465.61 773.61,450.277 771,434.5C 764.482,391.608 771.149,350.942 791,312.5C 797.735,300.264 807.235,290.931 819.5,284.5 Z"/></g>
<g><path style="opacity:0.275" fill="#ffcfcb" d="M 879.5,283.5 C 880.906,283.973 881.573,284.973 881.5,286.5C 880.094,286.027 879.427,285.027 879.5,283.5 Z"/></g>
<g><path style="opacity:0.122" fill="#ffe4e2" d="M 62.5,279.5 C 58.8206,284.871 55.1539,290.204 51.5,295.5C 53.7204,290.728 56.2204,286.062 59,281.5C 59.8159,280.177 60.9826,279.511 62.5,279.5 Z"/></g>
<g><path style="opacity:0.118" fill="#ffe8e6" d="M 881.5,286.5 C 882.906,286.973 883.573,287.973 883.5,289.5C 882.094,289.027 881.427,288.027 881.5,286.5 Z"/></g>
<g><path style="opacity:0.075" fill="#ffe2df" d="M 884.5,291.5 C 886.104,292.287 886.771,293.62 886.5,295.5C 885.326,294.486 884.66,293.153 884.5,291.5 Z"/></g>
<g><path style="opacity:0.271" fill="#ffd0cc" d="M 886.5,295.5 C 887.906,295.973 888.573,296.973 888.5,298.5C 887.094,298.027 886.427,297.027 886.5,295.5 Z"/></g>
<g><path style="opacity:0.176" fill="#ffe4e2" d="M 50.5,297.5 C 50.573,299.027 49.9063,300.027 48.5,300.5C 48.427,298.973 49.0937,297.973 50.5,297.5 Z"/></g>
<g><path style="opacity:0.165" fill="#ffdcd9" d="M 889.5,300.5 C 890.906,300.973 891.573,301.973 891.5,303.5C 890.094,303.027 889.427,302.027 889.5,300.5 Z"/></g>
<g><path style="opacity:1" fill="#8b8a94" d="M 132.5,305.5 C 188.363,336.262 244.03,367.262 299.5,398.5C 304.187,442.316 294.687,482.983 271,520.5C 236.991,565.794 191.824,583.794 135.5,574.5C 134.007,492.17 132.674,409.837 131.5,327.5C 131.175,319.981 131.508,312.648 132.5,305.5 Z"/></g>
<g><path style="opacity:0.075" fill="#ffe7e5" d="M 891.5,303.5 C 893.25,304.659 894.25,306.326 894.5,308.5C 892.75,307.341 891.75,305.674 891.5,303.5 Z"/></g>
<g><path style="opacity:0.157" fill="#ffddda" d="M 896.5,312.5 C 897.906,312.973 898.573,313.973 898.5,315.5C 897.094,315.027 896.427,314.027 896.5,312.5 Z"/></g>
<g><path style="opacity:0.035" fill="#ffe4e2" d="M 48.5,300.5 C 48.5402,303.425 47.7068,306.091 46,308.5C 41.8731,315.098 38.0398,321.765 34.5,328.5C 38.1316,318.57 42.7983,309.237 48.5,300.5 Z"/></g>
<g><path style="opacity:0.078" fill="#ffe7e6" d="M 899.5,317.5 C 900.906,317.973 901.573,318.973 901.5,320.5C 900.094,320.027 899.427,319.027 899.5,317.5 Z"/></g>
<g><path style="opacity:1" fill="#c67474" d="M 132.5,305.5 C 131.508,312.648 131.175,319.981 131.5,327.5C 130.18,319.99 130.18,312.323 131.5,304.5C 132.107,304.624 132.44,304.957 132.5,305.5 Z"/></g>
<g><path style="opacity:0.165" fill="#ffdedb" d="M 903.5,324.5 C 904.906,324.973 905.573,325.973 905.5,327.5C 904.094,327.027 903.427,326.027 903.5,324.5 Z"/></g>
<g><path style="opacity:0.075" fill="#ffe8e6" d="M 34.5,328.5 C 32.9259,333.32 30.5926,337.653 27.5,341.5C 29.0542,336.724 31.3875,332.39 34.5,328.5 Z"/></g>
<g><path style="opacity:0.216" fill="#ffd9d6" d="M 907.5,331.5 C 908.906,331.973 909.573,332.973 909.5,334.5C 908.094,334.027 907.427,333.027 907.5,331.5 Z"/></g>
<g><path style="opacity:0.161" fill="#ffe0de" d="M 910.5,336.5 C 911.906,336.973 912.573,337.973 912.5,339.5C 911.094,339.027 910.427,338.027 910.5,336.5 Z"/></g>
<g><path style="opacity:0.082" fill="#ffe9e7" d="M 913.5,341.5 C 914.906,341.973 915.573,342.973 915.5,344.5C 914.094,344.027 913.427,343.027 913.5,341.5 Z"/></g>
<g><path style="opacity:0.018" fill="#fff3f3" d="M 26.5,343.5 C 25.8333,345.5 25.1667,347.5 24.5,349.5C 24.1667,349.5 23.8333,349.5 23.5,349.5C 23.461,346.911 24.461,344.911 26.5,343.5 Z"/></g>
<g><path style="opacity:0.157" fill="#ffe2df" d="M 917.5,348.5 C 918.906,348.973 919.573,349.973 919.5,351.5C 918.094,351.027 917.427,350.027 917.5,348.5 Z"/></g>
<g><path style="opacity:0.929" fill="#ffa49a" d="M 23.5,349.5 C 23.8333,349.5 24.1667,349.5 24.5,349.5C 24.4456,351.632 23.4456,352.965 21.5,353.5C 21.6596,351.847 22.3263,350.514 23.5,349.5 Z"/></g>
<g><path style="opacity:0.09" fill="#ffe9e7" d="M 920.5,353.5 C 921.906,353.973 922.573,354.973 922.5,356.5C 921.094,356.027 920.427,355.027 920.5,353.5 Z"/></g>
<g><path style="opacity:0.306" fill="#ffcbc6" d="M 922.5,357.5 C 923.906,357.973 924.573,358.973 924.5,360.5C 923.094,360.027 922.427,359.027 922.5,357.5 Z"/></g>
<g><path style="opacity:0.016" fill="#fff5f5" d="M 19.5,357.5 C 19.0075,359.819 18.0075,361.819 16.5,363.5C 16.461,360.911 17.461,358.911 19.5,357.5 Z"/></g>
<g><path style="opacity:0.137" fill="#ffe5e3" d="M 924.5,360.5 C 925.906,360.973 926.573,361.973 926.5,363.5C 925.094,363.027 924.427,362.027 924.5,360.5 Z"/></g>
<g><path style="opacity:0.086" fill="#ffdfdc" d="M 927.5,365.5 C 929.104,366.287 929.771,367.62 929.5,369.5C 928.326,368.486 927.66,367.153 927.5,365.5 Z"/></g>
<g><path style="opacity:0.294" fill="#ffcdc9" d="M 929.5,369.5 C 930.906,369.973 931.573,370.973 931.5,372.5C 930.094,372.027 929.427,371.027 929.5,369.5 Z"/></g>
<g><path style="opacity:0.188" fill="#ffe2e0" d="M 16.5,363.5 C 16.3946,367.548 16.7279,371.548 17.5,375.5C 15.9827,373.538 15.3161,371.205 15.5,368.5C 15.5068,366.631 15.8401,364.964 16.5,363.5 Z"/></g>
<g><path style="opacity:0.184" fill="#ffd9d6" d="M 932.5,374.5 C 933.906,374.973 934.573,375.973 934.5,377.5C 933.094,377.027 932.427,376.027 932.5,374.5 Z"/></g>
<g><path style="opacity:0.278" fill="#ffdbd8" d="M 17.5,375.5 C 19.8208,378.796 22.1542,382.129 24.5,385.5C 20.7135,383.286 18.3802,379.952 17.5,375.5 Z"/></g>
<g><path style="opacity:0.086" fill="#ffe4e2" d="M 934.5,377.5 C 936.25,378.659 937.25,380.326 937.5,382.5C 935.75,381.341 934.75,379.674 934.5,377.5 Z"/></g>
<g><path style="opacity:0.016" fill="#ffefee" d="M 78.5,372.5 C 79.4794,375.625 79.8128,378.958 79.5,382.5C 78.6829,380.031 78.1829,377.365 78,374.5C 73.2343,378.964 67.7343,381.964 61.5,383.5C 67.2672,380.108 72.9338,376.442 78.5,372.5 Z"/></g>
<g><path style="opacity:0.447" fill="#ffcecb" d="M 24.5,385.5 C 26.0269,385.427 27.0269,386.094 27.5,387.5C 25.9731,387.573 24.9731,386.906 24.5,385.5 Z"/></g>
<g><path style="opacity:0.225" fill="#ffc5c1" d="M 78.5,372.5 C 78.56,371.957 78.8933,371.624 79.5,371.5C 80.4963,377.798 80.8297,384.132 80.5,390.5C 80.1667,390.5 79.8333,390.5 79.5,390.5C 79.5,387.833 79.5,385.167 79.5,382.5C 79.8128,378.958 79.4794,375.625 78.5,372.5 Z"/></g>
<g><path style="opacity:0.176" fill="#ffdad7" d="M 939.5,386.5 C 940.906,386.973 941.573,387.973 941.5,389.5C 940.094,389.027 939.427,388.027 939.5,386.5 Z"/></g>
<g><path style="opacity:0.008" fill="#ffe2df" d="M 29.5,388.5 C 32.096,389.055 34.4293,390.055 36.5,391.5C 34.8008,391.66 33.1341,391.494 31.5,391C 30.244,390.583 29.5774,389.75 29.5,388.5 Z"/></g>
<g><path style="opacity:0.02" fill="#ffeceb" d="M 56.5,387.5 C 52.2022,390.551 47.3688,392.551 42,393.5C 40.3775,392.901 38.8775,392.234 37.5,391.5C 44.1962,391.574 50.5295,390.24 56.5,387.5 Z"/></g>
<g><path style="opacity:0.098" fill="#ffe5e2" d="M 942.5,391.5 C 943.906,391.973 944.573,392.973 944.5,394.5C 943.094,394.027 942.427,393.027 942.5,391.5 Z"/></g>
<g><path style="opacity:1" fill="#fefefe" d="M 299.5,398.5 C 345.473,424.155 391.473,449.821 437.5,475.5C 438.507,485.192 439.674,494.859 441,504.5C 444.521,609.491 447.687,714.491 450.5,819.5C 450.815,823.371 450.482,827.038 449.5,830.5C 403.837,806.004 358.504,781.004 313.5,755.5C 313.333,729.165 313.5,702.831 314,676.5C 324.892,668.875 334.559,659.875 343,649.5C 353.303,634.29 351.137,621.124 336.5,610C 333.167,607.667 329.833,605.333 326.5,603C 304.581,591.702 282.914,580.036 261.5,568C 256.119,565.45 250.619,563.284 245,561.5C 237.839,562.793 234.839,567.126 236,574.5C 241.278,592.227 249.111,608.56 259.5,623.5C 264.472,634.436 269.805,645.103 275.5,655.5C 275.667,682.19 276.334,708.857 277.5,735.5C 230.48,710.239 183.647,684.572 137,658.5C 136.651,630.495 136.151,602.495 135.5,574.5C 191.824,583.794 236.991,565.794 271,520.5C 294.687,482.983 304.187,442.316 299.5,398.5 Z"/></g>
<g><path style="opacity:0.149" fill="#ffdad7" d="M 946.5,398.5 C 948.25,399.659 949.25,401.326 949.5,403.5C 947.75,402.341 946.75,400.674 946.5,398.5 Z"/></g>
<g><path style="opacity:0.009" fill="#fff6f5" d="M 79.5,390.5 C 79.8333,390.5 80.1667,390.5 80.5,390.5C 80.8188,420.834 81.1522,451.167 81.5,481.5C 81.5,486.167 81.5,490.833 81.5,495.5C 80.2303,460.674 79.5636,425.674 79.5,390.5 Z"/></g>
<g><path style="opacity:0.016" fill="#fff0ef" d="M 949.5,403.5 C 953.801,410.128 956.467,417.461 957.5,425.5C 956.791,435.367 952.458,443.2 944.5,449C 927.587,458.768 910.587,468.268 893.5,477.5C 908.974,467.257 924.974,457.757 941.5,449C 950.595,443.396 955.261,435.23 955.5,424.5C 953.112,417.664 951.112,410.664 949.5,403.5 Z"/></g>
<g><path style="opacity:1" fill="#495867" d="M 175.5,457.5 C 192.003,457.668 205.17,464.335 215,477.5C 221.776,488.718 226.609,500.718 229.5,513.5C 228.213,520.62 224.047,524.953 217,526.5C 214.077,526.205 211.743,524.871 210,522.5C 208.133,514.7 205.8,507.033 203,499.5C 198.178,493.014 192.345,487.514 185.5,483C 183.432,482.313 181.432,482.48 179.5,483.5C 177.874,486.998 176.707,490.665 176,494.5C 170.648,498.383 165.314,498.383 160,494.5C 157.172,489.029 156.839,483.362 159,477.5C 161.414,474.185 163.081,470.518 164,466.5C 167.449,462.877 171.283,459.877 175.5,457.5 Z"/></g>
<g><path style="opacity:0.011" fill="#fff3f2" d="M 893.5,477.5 C 882.171,484.637 870.671,491.637 859,498.5C 860.871,547.848 863.371,597.182 866.5,646.5C 866.498,649.686 866.165,652.686 865.5,655.5C 862.737,603.818 859.737,552.151 856.5,500.5C 856.833,499.5 857.167,498.5 857.5,497.5C 869.306,490.331 881.306,483.665 893.5,477.5 Z"/></g>
<g><path style="opacity:0.316" fill="#ffd2cf" d="M 81.5,481.5 C 82.3592,505.002 83.0259,528.668 83.5,552.5C 82.8333,552.5 82.5,552.167 82.5,551.5C 81.8334,533.53 81.1667,515.53 80.5,497.5C 80.8627,496.817 81.1961,496.15 81.5,495.5C 81.5,490.833 81.5,486.167 81.5,481.5 Z"/></g>
<g><path style="opacity:1" fill="#8b8a94" d="M 557.5,657.5 C 564.557,661.263 571.557,661.263 578.5,657.5C 584.411,655.545 590.077,653.045 595.5,650C 665.368,608.901 735.368,568.067 805.5,527.5C 808.305,563.297 810.639,599.13 812.5,635C 812.167,637.167 811.833,639.333 811.5,641.5C 708.915,707.375 606.415,773.375 504,839.5C 500.708,744.821 497.708,650.154 495,555.5C 511.366,585.187 527.7,614.853 544,644.5C 547.07,650.405 551.57,654.738 557.5,657.5 Z"/></g>
<g><path style="opacity:1" fill="#495867" d="M 313.5,755.5 C 301.17,749.337 289.17,742.67 277.5,735.5C 276.334,708.857 275.667,682.19 275.5,655.5C 275.66,653.801 275.494,652.134 275,650.5C 270.312,641.111 265.145,632.111 259.5,623.5C 249.111,608.56 241.278,592.227 236,574.5C 234.839,567.126 237.839,562.793 245,561.5C 250.619,563.284 256.119,565.45 261.5,568C 282.914,580.036 304.581,591.702 326.5,603C 329.833,605.333 333.167,607.667 336.5,610C 351.137,621.124 353.303,634.29 343,649.5C 334.559,659.875 324.892,668.875 314,676.5C 313.5,702.831 313.333,729.165 313.5,755.5 Z"/></g>
<g><path style="opacity:1" fill="#4b5a69" d="M 377.5,571.5 C 393.263,571.298 405.763,577.632 415,590.5C 416.934,594.759 419.268,598.759 422,602.5C 425.259,611.214 426.259,620.214 425,629.5C 419.547,637.942 413.213,638.608 406,631.5C 405.717,624.385 404.717,617.385 403,610.5C 399.262,603.427 394.096,597.594 387.5,593C 385.5,592.333 383.5,592.333 381.5,593C 380.23,596.905 378.73,600.739 377,604.5C 376.097,605.701 374.931,606.535 373.5,607C 361.895,609.727 357.061,605.227 359,593.5C 361.459,582.887 367.626,575.554 377.5,571.5 Z"/></g>
<g><path style="opacity:0.011" fill="#fff5f5" d="M 82.5,551.5 C 82.5,552.167 82.8333,552.5 83.5,552.5C 83.5,571.167 83.5,589.833 83.5,608.5C 82.8213,589.961 82.1546,571.294 81.5,552.5C 81.6236,551.893 81.9569,551.56 82.5,551.5 Z"/></g>
<g><path style="opacity:1" fill="#4d5b6a" d="M 191.5,618.5 C 194.32,618.248 196.986,618.748 199.5,620C 204.146,623.642 207.646,628.142 210,633.5C 212.508,640.974 210.008,644.141 202.5,643C 199.667,640.167 196.833,637.333 194,634.5C 189.596,629.536 188.762,624.202 191.5,618.5 Z"/></g>
<g><path style="opacity:1" fill="#898b95" d="M 259.5,623.5 C 265.145,632.111 270.312,641.111 275,650.5C 275.494,652.134 275.66,653.801 275.5,655.5C 269.805,645.103 264.472,634.436 259.5,623.5 Z"/></g>
<g><path style="opacity:0.009" fill="#fff7f7" d="M 83.5,610.5 C 84.4946,621.321 84.8279,632.321 84.5,643.5C 84.5,651.167 84.5,658.833 84.5,666.5C 83.8273,648.098 83.1606,629.598 82.5,611C 82.7284,610.601 83.0618,610.435 83.5,610.5 Z"/></g>
<g><path style="opacity:1" fill="#4c5b6a" d="M 177.5,643.5 C 188.034,643.197 193.701,648.364 194.5,659C 194.471,665.097 191.471,667.097 185.5,665C 179.247,659.024 176.581,651.857 177.5,643.5 Z"/></g>
<g><path style="opacity:1" fill="#e96760" d="M 557.5,657.5 C 564.505,658.779 571.505,658.779 578.5,657.5C 571.557,661.263 564.557,661.263 557.5,657.5 Z"/></g>
<g><path style="opacity:1" fill="#4d5c6a" d="M 210.5,659.5 C 218.716,661.55 223.716,666.716 225.5,675C 225.401,680.385 222.734,682.385 217.5,681C 209.052,676.94 205.885,670.44 208,661.5C 208.995,660.934 209.828,660.267 210.5,659.5 Z"/></g>
<g><path style="opacity:0.356" fill="#ffb6b1" d="M 84.5,643.5 C 85.2542,654.684 85.9209,666.017 86.5,677.5C 84.783,674.155 84.1164,670.489 84.5,666.5C 84.5,658.833 84.5,651.167 84.5,643.5 Z"/></g>
<g><path style="opacity:0.114" fill="#ffe7e5" d="M 865.5,655.5 C 865.223,667.408 859.556,675.408 848.5,679.5C 851.971,675.503 855.804,671.837 860,668.5C 862.297,664.24 864.13,659.907 865.5,655.5 Z"/></g>
<g><path style="opacity:0.012" fill="#fff3f2" d="M 847.5,680.5 C 845.049,683.277 842.049,685.277 838.5,686.5C 840.975,683.759 843.975,681.759 847.5,680.5 Z"/></g>
<g><path style="opacity:0.016" fill="#ffefee" d="M 838.5,686.5 C 828.685,693.911 818.352,700.578 807.5,706.5C 817.315,699.089 827.648,692.422 838.5,686.5 Z"/></g>
<g><path style="opacity:0.059" fill="#ffeeec" d="M 807.5,706.5 C 803.376,710.281 798.709,713.281 793.5,715.5C 797.624,711.719 802.291,708.719 807.5,706.5 Z"/></g>
<g><path style="opacity:0.014" fill="#ffefed" d="M 793.5,715.5 C 789.376,719.281 784.709,722.281 779.5,724.5C 783.624,720.719 788.291,717.719 793.5,715.5 Z"/></g>
<g><path style="opacity:1" fill="#4b5a69" d="M 383.5,723.5 C 392.648,725.15 397.981,730.65 399.5,740C 398.792,745.383 395.792,747.716 390.5,747C 382.483,741.814 379.317,734.647 381,725.5C 381.995,724.934 382.828,724.267 383.5,723.5 Z"/></g>
<g><path style="opacity:0.01" fill="#fff1f0" d="M 86.5,677.5 C 91.1807,686.012 97.1807,693.512 104.5,700C 220.723,763.941 336.723,828.108 452.5,892.5C 334.782,828.806 217.449,764.306 100.5,699C 95.4936,694.474 91.3269,689.307 88,683.5C 87.187,681.564 86.687,679.564 86.5,677.5 Z"/></g>
<g><path style="opacity:0.012" fill="#ffefee" d="M 779.5,724.5 C 769.685,731.911 759.352,738.578 748.5,744.5C 758.315,737.089 768.648,730.422 779.5,724.5 Z"/></g>
<g><path style="opacity:0.055" fill="#ffedeb" d="M 748.5,744.5 C 744.376,748.281 739.709,751.281 734.5,753.5C 738.624,749.719 743.291,746.719 748.5,744.5 Z"/></g>
<g><path style="opacity:1" fill="#4c5a69" d="M 369.5,749.5 C 376.429,749.051 381.262,752.051 384,758.5C 385.277,762.097 385.61,765.764 385,769.5C 383.136,772.207 380.636,773.041 377.5,772C 368.635,766.481 365.968,758.981 369.5,749.5 Z"/></g>
<g><path style="opacity:0.067" fill="#ffebea" d="M 734.5,753.5 C 730.376,757.281 725.709,760.281 720.5,762.5C 724.624,758.719 729.291,755.719 734.5,753.5 Z"/></g>
<g><path style="opacity:1" fill="#4e5d6b" d="M 398.5,765.5 C 412.866,765.669 418.199,772.503 414.5,786C 408.911,788.778 404.411,787.612 401,782.5C 397.787,777.115 396.953,771.449 398.5,765.5 Z"/></g>
<g><path style="opacity:0.014" fill="#ffefee" d="M 720.5,762.5 C 715.352,766.911 709.686,770.578 703.5,773.5C 708.648,769.089 714.314,765.422 720.5,762.5 Z"/></g>
<g><path style="opacity:0.016" fill="#ffefed" d="M 703.5,773.5 C 699.376,777.281 694.709,780.281 689.5,782.5C 693.624,778.719 698.291,775.719 703.5,773.5 Z"/></g>
<g><path style="opacity:0.063" fill="#ffecea" d="M 689.5,782.5 C 685.376,786.281 680.709,789.281 675.5,791.5C 679.624,787.719 684.291,784.719 689.5,782.5 Z"/></g>
<g><path style="opacity:0.004" fill="#fff6f5" d="M 675.5,791.5 C 675.027,792.906 674.027,793.573 672.5,793.5C 672.973,792.094 673.973,791.427 675.5,791.5 Z"/></g>
<g><path style="opacity:0.051" fill="#ffecea" d="M 672.5,793.5 C 669.35,796.579 665.683,798.913 661.5,800.5C 664.65,797.421 668.317,795.087 672.5,793.5 Z"/></g>
<g><path style="opacity:0.004" fill="#fff5f4" d="M 661.5,800.5 C 661.027,801.906 660.027,802.573 658.5,802.5C 658.973,801.094 659.973,800.427 661.5,800.5 Z"/></g>
<g><path style="opacity:0.063" fill="#ffedeb" d="M 658.5,802.5 C 654.376,806.281 649.709,809.281 644.5,811.5C 648.624,807.719 653.291,804.719 658.5,802.5 Z"/></g>
<g><path style="opacity:0.014" fill="#fff0ef" d="M 644.5,811.5 C 639.352,815.911 633.686,819.578 627.5,822.5C 632.648,818.089 638.314,814.422 644.5,811.5 Z"/></g>
<g><path style="opacity:0.055" fill="#ffeceb" d="M 627.5,822.5 C 624.35,825.579 620.683,827.913 616.5,829.5C 619.65,826.421 623.317,824.087 627.5,822.5 Z"/></g>
<g><path style="opacity:1" fill="#ffb3ae" d="M 450.5,819.5 C 451.809,823.351 451.809,827.351 450.5,831.5C 449.893,831.376 449.56,831.043 449.5,830.5C 450.482,827.038 450.815,823.371 450.5,819.5 Z"/></g>
<g><path style="opacity:0.004" fill="#fff5f5" d="M 616.5,829.5 C 616.027,830.906 615.027,831.573 613.5,831.5C 613.973,830.094 614.973,829.427 616.5,829.5 Z"/></g>
<g><path style="opacity:0.014" fill="#ffefee" d="M 613.5,831.5 C 609.376,835.281 604.709,838.281 599.5,840.5C 603.624,836.719 608.291,833.719 613.5,831.5 Z"/></g>
<g><path style="opacity:0.059" fill="#ffecea" d="M 599.5,840.5 C 595.376,844.281 590.709,847.281 585.5,849.5C 589.624,845.719 594.291,842.719 599.5,840.5 Z"/></g>
<g><path style="opacity:0.004" fill="#fff6f5" d="M 585.5,849.5 C 585.027,850.906 584.027,851.573 582.5,851.5C 582.973,850.094 583.973,849.427 585.5,849.5 Z"/></g>
<g><path style="opacity:0.016" fill="#fff0ef" d="M 582.5,851.5 C 578.376,855.281 573.709,858.281 568.5,860.5C 572.624,856.719 577.291,853.719 582.5,851.5 Z"/></g>
<g><path style="opacity:0.01" fill="#fff1ef" d="M 568.5,860.5 C 558.685,867.911 548.352,874.578 537.5,880.5C 547.315,873.089 557.648,866.422 568.5,860.5 Z"/></g>
<g><path style="opacity:0.063" fill="#ffecea" d="M 537.5,880.5 C 534.35,883.579 530.683,885.913 526.5,887.5C 529.65,884.421 533.317,882.087 537.5,880.5 Z"/></g>
<g><path style="opacity:0.004" fill="#fff5f5" d="M 526.5,887.5 C 526.027,888.906 525.027,889.573 523.5,889.5C 523.973,888.094 524.973,887.427 526.5,887.5 Z"/></g>
<g><path style="opacity:0.035" fill="#ffeae9" d="M 523.5,889.5 C 513.905,896.975 503.572,903.475 492.5,909C 489.304,909.805 486.304,909.638 483.5,908.5C 486.91,908.543 490.243,908.043 493.5,907C 503.719,901.396 513.719,895.562 523.5,889.5 Z"/></g>
<g><path style="opacity:0.541" fill="#ffb6af" d="M 474.5,903.5 C 476.027,903.427 477.027,904.094 477.5,905.5C 475.973,905.573 474.973,904.906 474.5,903.5 Z"/></g>
<g><path style="opacity:0.094" fill="#ffdfdc" d="M 477.5,905.5 C 479.027,905.427 480.027,906.094 480.5,907.5C 478.973,907.573 477.973,906.906 477.5,905.5 Z"/></g>
</svg>
